<?xml version="1.0" encoding="iso-8859-1"?>
<!-- Generator: Adobe Illustrator 17.1.0, SVG Export Plug-In . SVG Version: 6.00 Build 0)  -->
<!DOCTYPE svg PUBLIC "-//W3C//DTD SVG 1.1//EN" "http://www.w3.org/Graphics/SVG/1.1/DTD/svg11.dtd">
<svg version="1.1" id="Capa_1" xmlns="http://www.w3.org/2000/svg" xmlns:xlink="http://www.w3.org/1999/xlink" x="0px" y="0px"
	 viewBox="0 0 395.188 395.188" style="enable-background:new 0 0 395.188 395.188;" xml:space="preserve">
<path id="XMLID_316_" d="M84.401,148.231V9c0-4.971,4.029-9,9-9h274.174c4.971,0,9,4.029,9,9v29.321c0,4.971-4.029,9-9,9
	s-9-4.029-9-9V18H102.401v130.231c0,4.971-4.029,9-9,9S84.401,153.202,84.401,148.231z M165.678,139.749
	c-0.062,0-0.123,0-0.184,0.002c-4.97,0.099-8.918,4.208-8.818,9.178c0.034,1.712,0.11,3.44,0.226,5.137
	c0.324,4.751,4.278,8.388,8.971,8.388c0.205,0,0.413-0.007,0.621-0.021c4.959-0.338,8.705-4.632,8.367-9.592
	c-0.097-1.41-0.16-2.848-0.188-4.272C174.574,143.66,170.565,139.749,165.678,139.749z M182.504,111.327
	c13.048-28.097,40.331-46.871,71.205-48.996c12.686-0.875,25.075,1.022,36.816,5.635c4.624,1.817,9.85-0.458,11.668-5.085
	c1.817-4.626-0.459-9.85-5.086-11.668c-14.246-5.598-29.262-7.896-44.636-6.839c-37.417,2.575-70.482,25.325-86.294,59.372
	c-2.093,4.508-0.136,9.86,4.372,11.953c1.228,0.57,2.516,0.839,3.785,0.839C177.73,116.539,180.98,114.608,182.504,111.327z
	 M200.148,218.023v146.418c0,29.883-82.826,30.746-92.271,30.746s-92.271-0.863-92.271-30.746V218.023
	c0-29.884,82.826-30.747,92.271-30.747S200.148,188.14,200.148,218.023z M34.641,218.023c3.215,2.372,12.302,6.691,31.704,9.745
	c4.376,0.689,7.601,4.46,7.601,8.891v38.188c0,5.357,4.358,9.715,9.715,9.715c5.355,0,9.713-4.358,9.713-9.715V239.72
	c0-2.413,0.97-4.726,2.69-6.417c1.72-1.692,4.063-2.624,6.462-2.581c1.77,0.03,3.552,0.048,5.352,0.048
	c19.211,0,37.74-1.778,52.173-5.006c12.411-2.776,18.561-5.888,21.063-7.74c-2.502-1.852-8.651-4.964-21.063-7.74
	c-14.433-3.228-32.961-5.006-52.173-5.006s-37.741,1.778-52.174,5.006C43.291,213.059,37.143,216.171,34.641,218.023z
	 M182.148,237.781c-22.141,9.383-58.323,10.767-70.774,10.958v26.108c0,15.282-12.432,27.715-27.713,27.715
	c-15.282,0-27.715-12.433-27.715-27.715v-30.633c-8.915-1.744-16.366-3.882-22.339-6.408v125.742
	c1.465,1.574,7.375,5.34,22.098,8.633c14.433,3.228,32.961,5.005,52.173,5.005s37.74-1.778,52.173-5.005
	c14.723-3.293,20.633-7.059,22.098-8.633V237.781z M367.575,219.178c-4.971,0-9,4.029-9,9v94.437h-51.006c-4.971,0-9,4.029-9,9
	s4.029,9,9,9h60.006c4.971,0,9-4.029,9-9V228.178C376.575,223.207,372.546,219.178,367.575,219.178z M331.666,185.293
	L236.795,388.74c-1.526,3.274-4.772,5.198-8.162,5.198c-1.273,0-2.567-0.271-3.798-0.845c-4.505-2.101-6.454-7.456-4.354-11.96
	l94.832-203.364c-11.504-9.671-15.605-26.23-8.959-40.486c1.893-4.059,3.678-7.804,5.34-11.291
	c12.796-26.846,15.878-34.499,9.465-49.757c-1.483-3.53-0.571-7.612,2.273-10.175c2.846-2.563,7-3.045,10.356-1.201
	c59.224,32.532,49.388,71.313,34.202,101.464v0.001C360.924,180.354,346.099,187.658,331.666,185.293z M330.618,166.327
	c7.88,3.559,17.204,0.027,21.297-8.1c10.747-21.337,18.353-43.848-9.573-66.297c-0.508,12.662-6.284,24.781-14.398,41.807
	c-1.642,3.444-3.405,7.144-5.274,11.153c-3.745,8.03-0.258,17.611,7.772,21.355c0.002,0.001,0.005,0.002,0.007,0.003
	c0.047,0.021,0.093,0.042,0.139,0.063C330.598,166.317,330.608,166.322,330.618,166.327z"/>
<g>
</g>
<g>
</g>
<g>
</g>
<g>
</g>
<g>
</g>
<g>
</g>
<g>
</g>
<g>
</g>
<g>
</g>
<g>
</g>
<g>
</g>
<g>
</g>
<g>
</g>
<g>
</g>
<g>
</g>
</svg>
